<svg width="357" height="327" viewBox="0 0 357 327" fill="none" xmlns="http://www.w3.org/2000/svg">
<g filter="url(#filter0_dd_595_5026)">
<g clip-path="url(#clip0_595_5026)">
<path d="M117.832 117.334L200.538 121.879L216.489 0.194336H126.108L117.832 117.334Z" fill="#2ECC71" fill-opacity="0.18"/>
<path d="M200.706 122.086L117.626 117.521L117.642 117.323L125.926 0H216.707L216.68 0.221812L200.706 122.086ZM118.042 117.152L200.368 121.673L216.268 0.389143H126.291L118.042 117.152Z" fill="white"/>
<path d="M110.471 116.933L118.716 0.194336H4.20142L8.5354 111.33L110.471 116.933Z" fill="#2ECC71" fill-opacity="0.18"/>
<path d="M110.65 117.136L110.46 117.124L8.34563 111.517L8.33787 111.338L4 0H118.926L118.911 0.210137L110.65 117.136ZM8.72199 111.147L110.293 116.727L118.507 0.389143H4.40352L8.72199 111.147Z" fill="white"/>
<path d="M109.94 124.42L8.82642 118.864L12.7879 220.414H103.161L109.94 124.42Z" fill="#2ECC71" fill-opacity="0.18"/>
<path d="M103.344 220.609H12.602L12.5943 220.422L8.625 118.657L8.8384 118.669L110.15 124.234L110.134 124.432L103.344 220.609ZM12.9745 220.22H102.979L109.735 124.604L9.02852 119.07L12.9745 220.22Z" fill="white"/>
<path d="M117.304 124.825L110.553 220.414H187.622L199.557 129.343L117.304 124.825Z" fill="#2ECC71" fill-opacity="0.18"/>
<path d="M187.793 220.609H110.348L110.363 220.399L117.13 124.619L117.32 124.631L199.782 129.16L187.793 220.609ZM110.763 220.22H187.451L199.34 129.526L117.487 125.028L110.763 220.22Z" fill="white"/>
</g>
<g clip-path="url(#clip1_595_5026)">
<path d="M236.632 127.795H146.464V171.098H236.632V127.795Z" fill="#F6C949"/>
<path d="M236.835 171.299H146.263V127.594H236.835V171.299ZM146.667 170.898H236.431V127.996H146.667V170.898Z" fill="#171725"/>
<path d="M237.961 117.864H155.952V132.214H237.961V117.864Z" fill="#F6C949"/>
<path d="M238.164 132.411H155.751V117.66H238.164V132.411ZM156.155 132.01H237.76V118.061H156.155V132.01Z" fill="#171725"/>
<path d="M139.925 301.209L129.564 318H171.436L147.628 303.955L144.865 300.892L139.925 301.209Z" fill="#171725"/>
<path d="M112.247 282.568L92.4292 282.897L114.913 318L114.056 290.504L115.171 286.542L112.247 282.568Z" fill="#171725"/>
<path d="M163.595 303.621H130.278V153.489L158.865 145.629L163.595 303.621Z" fill="#2347CF"/>
<path d="M163.596 303.822H130.279C130.166 303.822 130.077 303.734 130.077 303.622V153.489C130.077 153.401 130.137 153.32 130.226 153.296L158.813 145.437C158.874 145.421 158.938 145.433 158.987 145.469C159.035 145.505 159.068 145.561 159.068 145.626L163.798 303.618C163.798 303.67 163.778 303.726 163.741 303.762C163.701 303.802 163.648 303.822 163.596 303.822ZM130.481 303.421H163.39L158.672 145.89L130.481 153.642V303.421Z" fill="#2347CF"/>
<path d="M158.865 145.629C167.246 177.276 181.15 224.039 179.211 232.794C176.614 242.732 145.446 274.387 124.566 298.222L99.6304 276.86C116.216 256.272 139.811 229.976 139.811 223.152C139.661 212.768 116.071 190.361 116.071 171.102C116.22 158.615 119.521 153.601 123.099 145.432L123.968 142.855L156.138 142.96L158.865 145.629Z" fill="#4D6FF0"/>
<path d="M124.563 298.424C124.514 298.424 124.47 298.408 124.43 298.375L99.4982 277.009C99.4174 276.936 99.4053 276.816 99.474 276.732C103.36 271.907 107.698 266.689 111.891 261.643C125.516 245.25 139.61 228.302 139.61 223.148C139.549 218.841 135.36 212.379 130.509 204.901C123.646 194.316 115.87 182.318 115.87 171.099C115.995 160.457 118.463 155.095 121.315 148.881C121.832 147.753 122.369 146.585 122.911 145.349L123.771 142.788C123.799 142.707 123.876 142.651 123.961 142.651L156.131 142.755C156.184 142.755 156.236 142.776 156.272 142.812L158.999 145.489C159.023 145.513 159.043 145.545 159.052 145.581C160.752 152 162.647 158.924 164.654 166.258C172.297 194.175 180.957 225.814 179.398 232.838C177.471 240.2 159.811 259.584 142.732 278.329C136.588 285.073 130.234 292.045 124.708 298.355C124.676 298.399 124.619 298.424 124.563 298.424ZM99.9102 276.832L124.543 297.938C130.04 291.664 136.342 284.748 142.437 278.056C159.484 259.347 177.112 239.999 179.01 232.738C180.545 225.814 171.897 194.227 164.27 166.354C162.267 159.04 160.376 152.132 158.68 145.73L156.05 143.149L124.11 143.049L123.286 145.489C122.737 146.745 122.2 147.918 121.679 149.045C118.726 155.472 116.395 160.546 116.27 171.099C116.27 182.197 124.013 194.139 130.844 204.68C135.728 212.21 139.945 218.717 140.01 223.144C140.01 228.447 126.502 244.696 112.198 261.9C108.054 266.893 103.764 272.051 99.9102 276.832Z" fill="#4D6FF0"/>
<path d="M116.12 172.825V172.423C120.289 172.423 124.369 170.834 127.035 168.164C129.014 166.185 130.052 163.773 130.04 161.188L130.073 156.363H118.467V155.962H130.481L130.444 161.188C130.46 163.881 129.378 166.394 127.322 168.449C124.579 171.191 120.39 172.825 116.12 172.825Z" fill="#171725"/>
<path d="M119.61 157.551H118.803C118.689 157.551 118.601 157.463 118.601 157.35C118.601 157.238 118.689 157.15 118.803 157.15H119.61C119.724 157.15 119.812 157.238 119.812 157.35C119.812 157.463 119.724 157.551 119.61 157.551Z" fill="#171725"/>
<path d="M126.393 157.551H124.696C124.583 157.551 124.494 157.463 124.494 157.35C124.494 157.238 124.583 157.15 124.696 157.15H126.393C126.506 157.15 126.595 157.238 126.595 157.35C126.595 157.463 126.506 157.551 126.393 157.551ZM123.004 157.551H121.307C121.194 157.551 121.105 157.463 121.105 157.35C121.105 157.238 121.194 157.15 121.307 157.15H123.004C123.117 157.15 123.206 157.238 123.206 157.35C123.206 157.463 123.113 157.551 123.004 157.551Z" fill="#171725"/>
<path d="M128.885 158.358H128.881C128.768 158.354 128.683 158.261 128.683 158.153C128.687 157.956 128.691 157.756 128.691 157.555H128.085C127.972 157.555 127.883 157.467 127.883 157.354C127.883 157.242 127.972 157.154 128.085 157.154H128.893C129.006 157.154 129.095 157.242 129.095 157.354C129.095 157.627 129.091 157.896 129.087 158.165C129.083 158.269 128.994 158.358 128.885 158.358Z" fill="#171725"/>
<path d="M119.82 170.862C119.732 170.862 119.651 170.805 119.627 170.717C119.594 170.609 119.655 170.5 119.764 170.468C120.321 170.308 120.855 170.127 121.351 169.938C121.456 169.898 121.574 169.95 121.614 170.055C121.654 170.159 121.602 170.276 121.497 170.316C120.988 170.512 120.447 170.693 119.877 170.858C119.857 170.858 119.841 170.862 119.82 170.862ZM122.967 169.633C122.894 169.633 122.826 169.593 122.789 169.525C122.737 169.425 122.777 169.304 122.874 169.256C123.383 168.995 123.86 168.702 124.292 168.393C124.381 168.329 124.51 168.349 124.575 168.441C124.64 168.529 124.619 168.658 124.526 168.722C124.078 169.043 123.585 169.34 123.06 169.613C123.028 169.625 123 169.633 122.967 169.633ZM125.698 167.67C125.645 167.67 125.597 167.65 125.556 167.61C125.476 167.534 125.476 167.406 125.556 167.325C125.944 166.936 126.3 166.51 126.611 166.061C126.675 165.969 126.801 165.948 126.889 166.009C126.982 166.073 127.007 166.197 126.942 166.286C126.619 166.755 126.247 167.201 125.843 167.606C125.799 167.65 125.75 167.67 125.698 167.67ZM127.604 164.917C127.576 164.917 127.548 164.913 127.52 164.897C127.419 164.849 127.374 164.732 127.419 164.632C127.641 164.15 127.835 163.628 127.996 163.082C128.029 162.978 128.138 162.914 128.247 162.946C128.356 162.978 128.416 163.09 128.384 163.195C128.218 163.761 128.016 164.299 127.786 164.796C127.754 164.873 127.681 164.917 127.604 164.917ZM128.574 161.706C128.562 161.706 128.55 161.706 128.538 161.702C128.429 161.682 128.356 161.577 128.372 161.469C128.465 160.951 128.538 160.397 128.586 159.819C128.594 159.707 128.695 159.626 128.804 159.638C128.917 159.646 128.998 159.747 128.986 159.855C128.933 160.445 128.861 161.011 128.768 161.541C128.756 161.637 128.671 161.706 128.574 161.706Z" fill="#171725"/>
<path d="M117.373 171.44C117.276 171.44 117.195 171.371 117.175 171.275C117.155 171.167 117.227 171.062 117.336 171.038C117.603 170.986 117.866 170.934 118.124 170.878C118.233 170.854 118.342 170.922 118.366 171.03C118.391 171.139 118.322 171.247 118.213 171.271C117.954 171.327 117.688 171.383 117.417 171.436C117.401 171.44 117.389 171.44 117.373 171.44Z" fill="#171725"/>
<path d="M142.626 72.7507L148.798 74.9986L146.649 78.3664L141.701 75.9218L142.626 72.7507Z" fill="white"/>
<path d="M146.651 78.5674C146.622 78.5674 146.59 78.5594 146.562 78.5473L141.613 76.0988C141.525 76.0546 141.484 75.9583 141.508 75.8619L142.433 72.6949C142.45 72.6427 142.486 72.5985 142.534 72.5704C142.583 72.5464 142.643 72.5423 142.696 72.5624L148.868 74.8103C148.925 74.8303 148.969 74.8785 148.989 74.9347C149.01 74.9909 149.002 75.0551 148.969 75.1073L146.82 78.4751C146.784 78.5353 146.715 78.5674 146.651 78.5674ZM141.941 75.8178L146.574 78.1098L148.493 75.1073L142.761 73.02L141.941 75.8178Z" fill="#171725"/>
<path d="M154.337 46.3588L157.189 66.6577L153.453 66.9507V69.5559C143.419 71.3822 137.541 68.5122 134.997 63.8078C128.784 46.5073 139.747 43.3643 154.337 46.3588Z" fill="#171725"/>
<path d="M144.581 77.9326L134.345 74.9783L135.662 63.6667H144.868L144.581 77.9326Z" fill="#EC5E48"/>
<path d="M144.78 78.1979L134.128 75.1232L135.485 63.4705H145.079L144.78 78.1979ZM134.568 74.8302L144.388 77.6641L144.663 63.8678H135.841L134.568 74.8302Z" fill="#EC5E48"/>
<path d="M135.78 65.02C137.105 68.0145 141.04 68.8936 144.711 69.0943C144.711 69.0943 145.814 66.1439 145.624 66.0837C145.439 66.0235 135.78 65.02 135.78 65.02Z" fill="#171725"/>
<path d="M142.255 66.6571C135.581 66.6571 130.173 61.2823 130.173 54.6511V46.6191L154.336 46.3582V54.6511C154.336 61.2823 148.928 66.6571 142.255 66.6571Z" fill="#EC5E48"/>
<path d="M142.256 66.8583C135.481 66.8583 129.972 61.3832 129.972 54.6516V46.4229L154.539 46.158V54.6516C154.539 61.3832 149.03 66.8583 142.256 66.8583ZM130.376 46.8203V54.6516C130.376 61.1624 135.704 66.4569 142.256 66.4569C148.808 66.4569 154.136 61.1624 154.136 54.6516V46.5634L130.376 46.8203Z" fill="#EC5E48"/>
<path d="M142.489 35.3723H140.643C133.053 35.3723 126.897 41.4897 126.897 49.0321L123.576 68.4037L131.421 69.5598L131.542 59.3039L132.144 69.9532H134.834L133.219 54.4349C132.697 50.7741 144.19 50.3165 145.854 46.6276L147.429 47.8319C148.75 48.3898 152.204 48.4621 154.551 47.8278V47.1455C154.539 40.6387 149.033 35.3723 142.489 35.3723Z" fill="#171725"/>
<path d="M130.033 59.8927C132.227 59.247 133.363 56.5645 132.569 53.9012C131.776 51.2379 129.353 49.6023 127.159 50.248C124.964 50.8938 123.828 53.5763 124.622 56.2396C125.416 58.9029 127.838 60.5385 130.033 59.8927Z" fill="#EC5E48"/>
<path d="M129.051 60.2351C128.247 60.2351 127.439 59.9782 126.692 59.4725C125.629 58.758 124.829 57.63 124.429 56.2974C123.605 53.5317 124.805 50.7339 127.104 50.0555C129.402 49.3772 131.943 51.0791 132.767 53.8448C133.163 55.1774 133.11 56.5583 132.609 57.7304C132.104 58.9185 131.212 59.7534 130.089 60.0826C129.753 60.1829 129.402 60.2351 129.051 60.2351ZM128.142 50.3084C127.835 50.3084 127.524 50.3526 127.221 50.4409C125.136 51.055 124.058 53.632 124.817 56.185C125.189 57.4293 125.932 58.481 126.918 59.1433C127.891 59.7976 128.978 59.9983 129.98 59.7013C130.981 59.4082 131.785 58.6496 132.242 57.5778C132.702 56.49 132.755 55.2055 132.383 53.9612C131.733 51.7776 129.947 50.3084 128.142 50.3084Z" fill="#EC5E48"/>
<path d="M126.857 55.2699C126.845 55.2699 126.829 55.2699 126.817 55.2659C126.708 55.2418 126.639 55.1374 126.663 55.0291C126.986 53.5238 128.307 52.424 129.063 52.0828C129.164 52.0386 129.285 52.0828 129.329 52.1831C129.374 52.2835 129.329 52.4039 129.228 52.448C128.542 52.7571 127.346 53.7526 127.055 55.1134C127.035 55.2057 126.95 55.2699 126.857 55.2699Z" fill="#171725"/>
<path d="M129.657 56.1529C129.6 56.1529 129.543 56.1288 129.503 56.0847L127.512 53.8007C127.439 53.7164 127.447 53.592 127.532 53.5157C127.617 53.4434 127.742 53.4515 127.819 53.5358L129.81 55.8197C129.883 55.904 129.875 56.0285 129.79 56.1047C129.754 56.1369 129.705 56.1529 129.657 56.1529Z" fill="#171725"/>
<path d="M132.141 69.9492L130.573 47.9282H132.141L134.831 69.9492H132.141Z" fill="#171725"/>
<path d="M142.797 55.1774C143.35 55.1774 143.798 54.083 143.798 52.7329C143.798 51.3828 143.35 50.2883 142.797 50.2883C142.243 50.2883 141.795 51.3828 141.795 52.7329C141.795 54.083 142.243 55.1774 142.797 55.1774Z" fill="#171725"/>
<path d="M150.973 54.2102C151.43 54.2102 151.801 53.3332 151.801 52.2513C151.801 51.1695 151.43 50.2925 150.973 50.2925C150.515 50.2925 150.145 51.1695 150.145 52.2513C150.145 53.3332 150.515 54.2102 150.973 54.2102Z" fill="#171725"/>
<path d="M123.019 145.629H158.861L160.368 104.345C160.767 89.4367 148.419 76.1061 136.365 73.7539C128.723 70.0088 115.914 86.374 114.084 101.993C111.826 121.244 115.38 138.89 123.019 145.629Z" fill="white"/>
<path d="M159.06 145.83H122.947L122.891 145.778C115.224 139.018 111.609 121.413 113.891 101.965C114.541 96.4055 116.63 90.4125 119.764 85.0859C122.749 80.0202 126.425 76.0504 129.847 74.1999C132.29 72.8793 134.569 72.6545 136.435 73.5576C148.19 75.8657 160.987 89.0719 160.574 104.345L159.06 145.83ZM123.097 145.429H158.668L160.167 104.337C160.57 89.2525 147.927 76.2149 136.326 73.951L136.277 73.935C134.528 73.08 132.371 73.2927 130.036 74.5571C122.034 78.8843 115.43 92.251 114.287 102.017C112.025 121.288 115.567 138.713 123.097 145.429Z" fill="#171725"/>
<path d="M134.253 70.2898L130.338 74.1393L142.142 84.3108C142.162 84.3269 142.186 84.3188 142.198 84.2988L146.46 76.367L134.253 70.2898Z" fill="white"/>
<path d="M142.167 84.524C142.114 84.524 142.062 84.5039 142.017 84.4718L130.21 74.2922C130.17 74.2561 130.141 74.2039 130.141 74.1477C130.141 74.0915 130.162 74.0394 130.202 73.9992L134.116 70.1498C134.177 70.0896 134.27 70.0735 134.35 70.1136L146.562 76.1949C146.61 76.219 146.646 76.2631 146.663 76.3153C146.679 76.3675 146.675 76.4237 146.646 76.4719L142.385 84.4036C142.357 84.4558 142.284 84.5119 142.223 84.524C142.203 84.52 142.183 84.524 142.167 84.524ZM142.025 84.2029C142.025 84.2069 142.021 84.2069 142.021 84.2109L142.025 84.2029ZM130.638 74.1317L142.122 84.0262L146.19 76.4558L134.294 70.5351L130.638 74.1317Z" fill="#171725"/>
<path d="M190.085 146.44L202.046 155.383C204.146 156.868 205.657 156.535 207.584 157.374C208.888 157.872 211.7 162.998 214.826 165.695C214.653 166.651 214.156 167.305 212.532 166.907C210.714 166.366 208.472 164.796 206.497 162.207C206.222 161.89 205.584 162.127 205.867 162.789C207.147 165.659 208.662 170.03 208.105 171.178C206.78 172.607 205.633 173.707 203.783 173.671C202.324 174.699 200.648 175.172 198.62 174.739C197.311 175.305 196.213 175.754 194.75 174.739C191.975 172.254 190.901 167.06 191.236 161.629L182.491 154.432L190.085 146.44Z" fill="#EC5E48"/>
<path d="M196.493 175.546C195.919 175.546 195.309 175.374 194.635 174.904C192.021 172.564 190.68 167.647 191.028 161.722L182.193 154.457L190.062 146.172L202.164 155.223C203.408 156.102 204.422 156.323 205.497 156.552C206.179 156.7 206.89 156.853 207.658 157.186C208.328 157.439 209.29 158.732 210.514 160.365C211.77 162.051 213.337 164.146 214.953 165.539L215.038 165.616L215.018 165.728C214.905 166.346 214.678 166.743 214.307 166.984C213.879 167.257 213.281 167.297 212.473 167.101C210.409 166.483 208.171 164.745 206.325 162.328C206.26 162.252 206.143 162.252 206.074 162.296C205.969 162.36 205.957 162.517 206.042 162.709C207.1 165.078 208.93 169.919 208.276 171.263L208.244 171.311C206.903 172.761 205.727 173.872 203.861 173.872C203.853 173.872 203.845 173.872 203.837 173.872C202.229 174.988 200.528 175.338 198.634 174.948C197.931 175.257 197.24 175.546 196.493 175.546ZM182.787 154.42L191.448 161.545L191.44 161.646C191.08 167.494 192.369 172.335 194.885 174.591C196.259 175.542 197.264 175.109 198.541 174.555L198.602 174.531L198.666 174.543C200.488 174.932 202.128 174.595 203.667 173.507L203.719 173.467H203.788C205.533 173.503 206.608 172.492 207.933 171.063C208.365 170.059 207.137 166.125 205.679 162.866C205.481 162.4 205.646 162.087 205.864 161.951C206.115 161.798 206.45 161.846 206.644 162.067C208.446 164.427 210.611 166.117 212.586 166.707C213.269 166.876 213.766 166.856 214.093 166.643C214.343 166.483 214.505 166.202 214.602 165.764C212.986 164.343 211.439 162.272 210.191 160.602C209.056 159.085 208.074 157.772 207.508 157.555C206.765 157.234 206.079 157.086 205.412 156.941C204.346 156.712 203.239 156.472 201.926 155.54L190.107 146.701L182.787 154.42Z" fill="#EC5E48"/>
<path d="M198.622 174.94C198.549 174.94 198.48 174.9 198.444 174.832C197.567 173.182 196.622 170.878 196.606 169.369C196.606 169.256 196.695 169.168 196.804 169.164C196.913 169.16 197.006 169.252 197.01 169.361C197.026 170.802 197.987 173.106 198.803 174.639C198.856 174.735 198.82 174.86 198.719 174.912C198.686 174.932 198.654 174.94 198.622 174.94Z" fill="#171725"/>
<path d="M203.784 173.873C203.736 173.873 203.687 173.857 203.651 173.82C202.665 172.945 201.364 168.915 201.308 168.743C201.276 168.638 201.332 168.526 201.441 168.49C201.546 168.454 201.659 168.514 201.696 168.618C201.708 168.658 203.017 172.713 203.921 173.515C204.006 173.588 204.01 173.716 203.938 173.8C203.893 173.848 203.841 173.873 203.784 173.873Z" fill="#171725"/>
<path d="M196.399 140.828L180.189 160.758C154.345 143.197 131.138 125.262 128.125 103.98C126.452 87.7709 143.737 83.2029 148.799 92.2064C157.815 108.411 176.586 124.339 196.399 140.828Z" fill="white"/>
<path d="M180.23 161.027L180.077 160.923C155.392 144.148 131.03 125.937 127.924 104.008C127.5 99.9098 128.267 96.2169 130.141 93.3107C131.777 90.7779 134.233 88.8953 137.057 88.0082C141.945 86.4749 146.731 88.1206 148.973 92.1065C158.284 108.841 178.602 125.752 196.525 140.672L196.679 140.801L180.23 161.027ZM140.652 87.8436C139.525 87.8436 138.358 88.0203 137.178 88.3895C132.504 89.8547 127.378 94.812 128.324 103.96C131.402 125.676 155.59 143.791 180.15 160.486L196.117 140.853C178.203 125.941 157.941 109.054 148.622 92.3032C147.014 89.4452 144.025 87.8436 140.652 87.8436Z" fill="#171725"/>
</g>
<path d="M7.34521 318H353" stroke="#171725"/>
</g>
<defs>
<filter id="filter0_dd_595_5026" x="0" y="0" width="357" height="326.5" filterUnits="userSpaceOnUse" color-interpolation-filters="sRGB">
<feFlood flood-opacity="0" result="BackgroundImageFix"/>
<feColorMatrix in="SourceAlpha" type="matrix" values="0 0 0 0 0 0 0 0 0 0 0 0 0 0 0 0 0 0 127 0" result="hardAlpha"/>
<feOffset dy="4"/>
<feGaussianBlur stdDeviation="2"/>
<feComposite in2="hardAlpha" operator="out"/>
<feColorMatrix type="matrix" values="0 0 0 0 0 0 0 0 0 0 0 0 0 0 0 0 0 0 0.25 0"/>
<feBlend mode="normal" in2="BackgroundImageFix" result="effect1_dropShadow_595_5026"/>
<feColorMatrix in="SourceAlpha" type="matrix" values="0 0 0 0 0 0 0 0 0 0 0 0 0 0 0 0 0 0 127 0" result="hardAlpha"/>
<feOffset dy="4"/>
<feGaussianBlur stdDeviation="2"/>
<feComposite in2="hardAlpha" operator="out"/>
<feColorMatrix type="matrix" values="0 0 0 0 0 0 0 0 0 0 0 0 0 0 0 0 0 0 0.25 0"/>
<feBlend mode="normal" in2="effect1_dropShadow_595_5026" result="effect2_dropShadow_595_5026"/>
<feBlend mode="normal" in="SourceGraphic" in2="effect2_dropShadow_595_5026" result="shape"/>
</filter>
<clipPath id="clip0_595_5026">
<rect width="212.711" height="220.609" fill="white" transform="translate(4)"/>
</clipPath>
<clipPath id="clip1_595_5026">
<rect width="148.897" height="282.628" fill="white" transform="translate(92.4292 35.3723)"/>
</clipPath>
</defs>
</svg>
