<svg width="143" height="203" viewBox="0 0 143 203" fill="none" xmlns="http://www.w3.org/2000/svg">
<rect width="143" height="143" rx="71.5" fill="#2ECC71"/>
<g clip-path="url(#clip0_683_168869)">
<path d="M84.7124 71.5002C82.5999 71.5002 80.6124 70.3752 79.5374 68.5752L71.4999 55.2502L63.4749 68.5752C62.3874 70.3877 60.3999 71.5127 58.2874 71.5127C57.7249 71.5127 57.1624 71.4377 56.6249 71.2752L39.4999 66.3752V88.6252C39.4999 90.4627 40.7499 92.0627 42.5249 92.5002L69.5499 99.2627C70.8249 99.5752 72.1624 99.5752 73.4249 99.2627L100.475 92.5002C102.25 92.0502 103.5 90.4502 103.5 88.6252V66.3752L86.3749 71.2627C85.8374 71.4252 85.2749 71.5002 84.7124 71.5002ZM111.287 57.4752L104.85 44.6252C104.462 43.8502 103.625 43.4002 102.762 43.5127L71.4999 47.5002L82.9624 66.5127C83.4374 67.3002 84.3874 67.6752 85.2749 67.4252L110.012 60.3627C111.25 60.0002 111.85 58.6252 111.287 57.4752ZM38.1499 44.6252L31.7124 57.4752C31.1374 58.6252 31.7499 60.0002 32.9749 60.3502L57.7124 67.4127C58.5999 67.6627 59.5499 67.2877 60.0249 66.5002L71.4999 47.5002L40.2249 43.5127C39.3624 43.4127 38.5374 43.8502 38.1499 44.6252Z" fill="white"/>
</g>
<path d="M23.8984 193.168C22.3304 193.168 20.8904 192.8 19.5784 192.064C18.2664 191.328 17.2264 190.312 16.4584 189.016C15.6904 187.704 15.3064 186.224 15.3064 184.576C15.3064 182.944 15.6904 181.48 16.4584 180.184C17.2264 178.872 18.2664 177.848 19.5784 177.112C20.8904 176.376 22.3304 176.008 23.8984 176.008C25.4824 176.008 26.9224 176.376 28.2184 177.112C29.5304 177.848 30.5624 178.872 31.3144 180.184C32.0824 181.48 32.4664 182.944 32.4664 184.576C32.4664 186.224 32.0824 187.704 31.3144 189.016C30.5624 190.312 29.5304 191.328 28.2184 192.064C26.9064 192.8 25.4664 193.168 23.8984 193.168ZM23.8984 190.168C24.9064 190.168 25.7944 189.944 26.5624 189.496C27.3304 189.032 27.9304 188.376 28.3624 187.528C28.7944 186.68 29.0104 185.696 29.0104 184.576C29.0104 183.456 28.7944 182.48 28.3624 181.648C27.9304 180.8 27.3304 180.152 26.5624 179.704C25.7944 179.256 24.9064 179.032 23.8984 179.032C22.8904 179.032 21.9944 179.256 21.2104 179.704C20.4424 180.152 19.8424 180.8 19.4104 181.648C18.9784 182.48 18.7624 183.456 18.7624 184.576C18.7624 185.696 18.9784 186.68 19.4104 187.528C19.8424 188.376 20.4424 189.032 21.2104 189.496C21.9944 189.944 22.8904 190.168 23.8984 190.168ZM38.4262 181.768C38.8582 181.064 39.4182 180.512 40.1062 180.112C40.8102 179.712 41.6102 179.512 42.5062 179.512V183.04H41.6182C40.5622 183.04 39.7622 183.288 39.2182 183.784C38.6902 184.28 38.4262 185.144 38.4262 186.376V193H35.0662V179.704H38.4262V181.768ZM50.0773 179.488C51.0693 179.488 51.9413 179.688 52.6933 180.088C53.4453 180.472 54.0373 180.976 54.4693 181.6V179.704H57.8533V193.096C57.8533 194.328 57.6053 195.424 57.1093 196.384C56.6133 197.36 55.8693 198.128 54.8773 198.688C53.8853 199.264 52.6853 199.552 51.2773 199.552C49.3893 199.552 47.8373 199.112 46.6213 198.232C45.4213 197.352 44.7413 196.152 44.5813 194.632H47.9173C48.0933 195.24 48.4693 195.72 49.0453 196.072C49.6373 196.44 50.3493 196.624 51.1813 196.624C52.1573 196.624 52.9493 196.328 53.5573 195.736C54.1653 195.16 54.4693 194.28 54.4693 193.096V191.032C54.0373 191.656 53.4373 192.176 52.6693 192.592C51.9173 193.008 51.0533 193.216 50.0773 193.216C48.9573 193.216 47.9333 192.928 47.0053 192.352C46.0773 191.776 45.3413 190.968 44.7973 189.928C44.2693 188.872 44.0053 187.664 44.0053 186.304C44.0053 184.96 44.2693 183.768 44.7973 182.728C45.3413 181.688 46.0693 180.888 46.9813 180.328C47.9093 179.768 48.9413 179.488 50.0773 179.488ZM54.4693 186.352C54.4693 185.536 54.3093 184.84 53.9893 184.264C53.6693 183.672 53.2373 183.224 52.6933 182.92C52.1493 182.6 51.5653 182.44 50.9413 182.44C50.3173 182.44 49.7413 182.592 49.2133 182.896C48.6853 183.2 48.2533 183.648 47.9173 184.24C47.5973 184.816 47.4373 185.504 47.4373 186.304C47.4373 187.104 47.5973 187.808 47.9173 188.416C48.2533 189.008 48.6853 189.464 49.2133 189.784C49.7573 190.104 50.3333 190.264 50.9413 190.264C51.5653 190.264 52.1493 190.112 52.6933 189.808C53.2373 189.488 53.6693 189.04 53.9893 188.464C54.3093 187.872 54.4693 187.168 54.4693 186.352ZM60.3709 186.304C60.3709 184.96 60.6349 183.768 61.1629 182.728C61.7069 181.688 62.4349 180.888 63.3469 180.328C64.2749 179.768 65.3069 179.488 66.4429 179.488C67.4349 179.488 68.2989 179.688 69.0349 180.088C69.7869 180.488 70.3869 180.992 70.8349 181.6V179.704H74.2189V193H70.8349V191.056C70.4029 191.68 69.8029 192.2 69.0349 192.616C68.2829 193.016 67.4109 193.216 66.4189 193.216C65.2989 193.216 64.2749 192.928 63.3469 192.352C62.4349 191.776 61.7069 190.968 61.1629 189.928C60.6349 188.872 60.3709 187.664 60.3709 186.304ZM70.8349 186.352C70.8349 185.536 70.6749 184.84 70.3549 184.264C70.0349 183.672 69.6029 183.224 69.0589 182.92C68.5149 182.6 67.9309 182.44 67.3069 182.44C66.6829 182.44 66.1069 182.592 65.5789 182.896C65.0509 183.2 64.6189 183.648 64.2829 184.24C63.9629 184.816 63.8029 185.504 63.8029 186.304C63.8029 187.104 63.9629 187.808 64.2829 188.416C64.6189 189.008 65.0509 189.464 65.5789 189.784C66.1229 190.104 66.6989 190.264 67.3069 190.264C67.9309 190.264 68.5149 190.112 69.0589 189.808C69.6029 189.488 70.0349 189.04 70.3549 188.464C70.6749 187.872 70.8349 187.168 70.8349 186.352ZM84.9685 179.512C86.5525 179.512 87.8325 180.016 88.8085 181.024C89.7845 182.016 90.2725 183.408 90.2725 185.2V193H86.9125V185.656C86.9125 184.6 86.6485 183.792 86.1205 183.232C85.5925 182.656 84.8725 182.368 83.9605 182.368C83.0325 182.368 82.2965 182.656 81.7525 183.232C81.2245 183.792 80.9605 184.6 80.9605 185.656V193H77.6005V179.704H80.9605V181.36C81.4085 180.784 81.9765 180.336 82.6645 180.016C83.3685 179.68 84.1365 179.512 84.9685 179.512ZM95.2717 178.12C94.6797 178.12 94.1837 177.936 93.7837 177.568C93.3997 177.184 93.2077 176.712 93.2077 176.152C93.2077 175.592 93.3997 175.128 93.7837 174.76C94.1837 174.376 94.6797 174.184 95.2717 174.184C95.8637 174.184 96.3517 174.376 96.7357 174.76C97.1357 175.128 97.3357 175.592 97.3357 176.152C97.3357 176.712 97.1357 177.184 96.7357 177.568C96.3517 177.936 95.8637 178.12 95.2717 178.12ZM96.9277 179.704V193H93.5677V179.704H96.9277ZM99.4834 186.352C99.4834 184.976 99.7634 183.776 100.323 182.752C100.883 181.712 101.659 180.912 102.651 180.352C103.643 179.776 104.779 179.488 106.059 179.488C107.707 179.488 109.067 179.904 110.139 180.736C111.227 181.552 111.955 182.704 112.323 184.192H108.699C108.507 183.616 108.179 183.168 107.715 182.848C107.267 182.512 106.707 182.344 106.035 182.344C105.075 182.344 104.315 182.696 103.755 183.4C103.195 184.088 102.915 185.072 102.915 186.352C102.915 187.616 103.195 188.6 103.755 189.304C104.315 189.992 105.075 190.336 106.035 190.336C107.395 190.336 108.283 189.728 108.699 188.512H112.323C111.955 189.952 111.227 191.096 110.139 191.944C109.051 192.792 107.691 193.216 106.059 193.216C104.779 193.216 103.643 192.936 102.651 192.376C101.659 191.8 100.883 191 100.323 189.976C99.7634 188.936 99.4834 187.728 99.4834 186.352ZM120.789 193.216C119.509 193.216 118.357 192.936 117.333 192.376C116.309 191.8 115.501 190.992 114.909 189.952C114.333 188.912 114.045 187.712 114.045 186.352C114.045 184.992 114.341 183.792 114.933 182.752C115.541 181.712 116.365 180.912 117.405 180.352C118.445 179.776 119.605 179.488 120.885 179.488C122.165 179.488 123.325 179.776 124.365 180.352C125.405 180.912 126.221 181.712 126.813 182.752C127.421 183.792 127.725 184.992 127.725 186.352C127.725 187.712 127.413 188.912 126.789 189.952C126.181 190.992 125.349 191.8 124.293 192.376C123.253 192.936 122.085 193.216 120.789 193.216ZM120.789 190.288C121.397 190.288 121.965 190.144 122.493 189.856C123.037 189.552 123.469 189.104 123.789 188.512C124.109 187.92 124.269 187.2 124.269 186.352C124.269 185.088 123.933 184.12 123.261 183.448C122.605 182.76 121.797 182.416 120.837 182.416C119.877 182.416 119.069 182.76 118.413 183.448C117.773 184.12 117.453 185.088 117.453 186.352C117.453 187.616 117.765 188.592 118.389 189.28C119.029 189.952 119.829 190.288 120.789 190.288Z" fill="#171725"/>
<defs>
<clipPath id="clip0_683_168869">
<rect width="80" height="64" fill="white" transform="translate(31.5 39.5)"/>
</clipPath>
</defs>
</svg>
