<svg width="349" height="328" viewBox="0 0 349 328" fill="none" xmlns="http://www.w3.org/2000/svg">
<g clip-path="url(#clip0_595_3932)">
<path d="M113.832 120.769L196.538 125.447L212.489 0.199707H122.108L113.832 120.769Z" fill="#2ECC71" fill-opacity="0.18"/>
<path d="M196.706 125.66L113.626 120.962L113.642 120.757L121.926 0H212.707L212.68 0.228305L196.706 125.66ZM114.042 120.581L196.368 125.235L212.268 0.400535H122.291L114.042 120.581Z" fill="white"/>
<path d="M106.471 120.356L114.716 0.199707H0.201416L4.5354 114.588L106.471 120.356Z" fill="#2ECC71" fill-opacity="0.18"/>
<path d="M106.65 120.565L106.46 120.553L4.34563 114.781L4.33787 114.597L0 0H114.926L114.911 0.216289L106.65 120.565ZM4.72199 114.401L106.293 120.144L114.507 0.400535H0.403523L4.72199 114.401Z" fill="white"/>
<path d="M105.94 128.062L4.82642 122.343L8.78792 226.866H99.1615L105.94 128.062Z" fill="#2ECC71" fill-opacity="0.18"/>
<path d="M99.3441 227.067H8.60202L8.59426 226.875L4.625 122.131L4.8384 122.143L106.15 127.871L106.134 128.075L99.3441 227.067ZM8.97451 226.666H98.9794L105.735 128.251L5.02852 122.555L8.97451 226.666Z" fill="white"/>
<path d="M113.304 128.479L106.553 226.866H183.622L195.557 133.129L113.304 128.479Z" fill="#2ECC71" fill-opacity="0.18"/>
<path d="M183.793 227.067H106.348L106.363 226.851L113.13 128.267L113.32 128.279L195.782 132.941L183.793 227.067ZM106.763 226.666H183.451L195.34 133.318L113.487 128.688L106.763 226.666Z" fill="white"/>
</g>
<g clip-path="url(#clip1_595_3932)">
<path d="M176.666 104.437H156.38V131.164H176.666V104.437Z" fill="#F6C949"/>
<path d="M176.869 131.371H156.179V104.231H176.869V131.371ZM156.583 130.958H176.465V104.644H156.583V130.958Z" fill="#171725"/>
<path d="M166.12 112.886L156.251 104.599L156.51 104.276L166.132 112.362L175.984 104.665L176.23 104.995L166.12 112.886Z" fill="#171725"/>
<path d="M191.143 104.04C190.893 101.57 187.382 92.8481 186.078 91.5673C189.115 92.6952 190.957 97.0747 192.112 103.21C191.325 97.2688 194.488 92.3771 198.111 88.1836C195.918 93.1745 192.831 99.9957 192.678 102.97C194.185 97.9712 199.157 93.2075 203.827 90.708C199.707 94.8395 196.002 98.938 193.147 102.97C195.889 100.12 199.181 99.0743 202.873 99.3594C199.234 100.409 196.12 101.851 193.999 104.04H191.143Z" fill="#171725"/>
<path d="M194.004 104.248H191.144C191.039 104.248 190.954 104.169 190.942 104.062C190.692 101.595 187.185 92.9397 185.937 91.7167C185.868 91.6506 185.856 91.5432 185.905 91.4606C185.953 91.378 186.054 91.3408 186.147 91.3738C188.652 92.3034 190.514 95.3938 191.806 100.79C192.037 95.6004 195.139 91.3118 197.958 88.0479C198.023 87.9694 198.136 87.957 198.221 88.0108C198.306 88.0645 198.338 88.176 198.294 88.2669L197.866 89.2378C196.145 93.1462 194.085 97.8149 193.249 100.938C195.369 96.4969 199.833 92.6091 203.731 90.5227C203.82 90.4773 203.929 90.5021 203.989 90.5847C204.05 90.6673 204.038 90.783 203.969 90.8532C200.015 94.8195 196.888 98.3231 194.472 101.508C196.84 99.6947 199.663 98.9015 202.891 99.1535C202.988 99.1618 203.068 99.2403 203.076 99.3394C203.085 99.4386 203.024 99.5336 202.931 99.5584C198.912 100.719 196.04 102.231 194.145 104.186C194.109 104.223 194.056 104.248 194.004 104.248ZM191.326 103.835H193.923C195.676 102.054 198.213 100.637 201.651 99.5212C198.346 99.5336 195.604 100.719 193.297 103.116C193.224 103.194 193.103 103.198 193.022 103.128C192.942 103.058 192.925 102.938 192.99 102.851C195.349 99.5171 198.504 95.8441 202.612 91.6506C198.564 94.1626 194.266 98.4098 192.873 103.033C192.845 103.132 192.752 103.194 192.643 103.178C192.542 103.161 192.473 103.066 192.477 102.963C192.622 100.199 195.208 94.2742 197.357 89.4031C194.436 92.9769 191.58 97.629 192.315 103.186C192.332 103.297 192.255 103.401 192.15 103.417C192.045 103.434 191.94 103.364 191.92 103.252C190.768 97.1414 189.068 93.4809 186.737 92.1092C188.244 94.5097 190.97 101.351 191.326 103.835Z" fill="#171725"/>
<path d="M195.78 123.756H190.129C186.364 123.756 183.314 120.637 183.314 116.786V111.006C183.314 107.155 186.364 104.036 190.129 104.036H195.78C199.545 104.036 202.595 107.155 202.595 111.006V116.786C202.595 120.637 199.545 123.756 195.78 123.756Z" fill="#F6C949"/>
<path d="M195.781 123.963H190.13C186.26 123.963 183.114 120.745 183.114 116.787V111.007C183.114 107.049 186.26 103.83 190.13 103.83H195.781C199.651 103.83 202.798 107.049 202.798 111.007V116.787C202.798 120.745 199.651 123.963 195.781 123.963ZM190.13 104.247C186.482 104.247 183.517 107.28 183.517 111.011V116.791C183.517 120.521 186.482 123.554 190.13 123.554H195.781C199.429 123.554 202.394 120.521 202.394 116.791V111.011C202.394 107.28 199.429 104.247 195.781 104.247H190.13Z" fill="#171725"/>
<path d="M234.361 91.1628C231.25 89.6424 227.482 91.9684 224.529 97.389L211.13 126.045C209.644 129.227 210.956 133.036 214.067 134.556C217.177 136.077 220.901 134.734 222.388 131.553L235.484 103.549C238.113 98.0252 237.467 92.6832 234.361 91.1628Z" fill="#F6C949"/>
<path d="M216.75 135.391C215.821 135.391 214.876 135.185 213.979 134.747C212.428 133.986 211.256 132.656 210.683 130.995C210.109 129.334 210.202 127.545 210.945 125.959L224.344 97.3025C227.333 91.8117 231.203 89.3906 234.443 90.9771C235.553 91.5225 236.394 92.5471 236.87 93.9477C237.759 96.5547 237.307 100.178 235.658 103.644L222.563 131.648C221.468 134.007 219.153 135.391 216.75 135.391ZM232.411 90.911C229.822 90.911 227.01 93.2619 224.708 97.4884L211.313 126.136C210.618 127.624 210.529 129.301 211.066 130.859C211.604 132.416 212.702 133.664 214.157 134.375C217.162 135.846 220.773 134.54 222.211 131.466L235.307 103.463C236.911 100.095 237.355 96.5877 236.499 94.0799C236.058 92.7867 235.287 91.8406 234.277 91.3448C233.675 91.0556 233.049 90.911 232.411 90.911Z" fill="#171725"/>
<path d="M231.457 111.127L221.104 106.875L221.658 106.706C225.257 105.603 228.23 106.817 231.009 110.532L231.457 111.127ZM222.357 106.941L230.213 110.168C227.838 107.276 225.317 106.239 222.357 106.941Z" fill="#171725"/>
<path d="M234.164 105.504L223.811 101.252L224.364 101.083C227.967 99.9796 230.936 101.194 233.715 104.909L234.164 105.504ZM225.063 101.318L232.92 104.545C230.545 101.657 228.024 100.62 225.063 101.318Z" fill="#171725"/>
<path d="M228.105 117.799L217.752 113.548L218.305 113.378C221.904 112.275 224.877 113.49 227.656 117.204L228.105 117.799ZM219 113.614L226.857 116.84C224.485 113.952 221.961 112.915 219 113.614Z" fill="#171725"/>
<path d="M206.129 134.064C213.558 134.064 219.58 128.173 219.58 120.906C219.58 113.638 213.558 107.747 206.129 107.747C198.7 107.747 192.678 113.638 192.678 120.906C192.678 128.173 198.7 134.064 206.129 134.064Z" fill="#F6C949"/>
<path d="M206.13 134.275C198.605 134.275 192.477 128.281 192.477 120.91C192.477 113.539 198.601 107.544 206.13 107.544C213.66 107.544 219.779 113.539 219.779 120.91C219.783 128.276 213.66 134.275 206.13 134.275ZM206.13 107.953C198.827 107.953 192.881 113.767 192.881 120.906C192.881 128.049 198.823 133.858 206.13 133.858C213.433 133.858 219.375 128.045 219.375 120.906C219.38 113.767 213.433 107.953 206.13 107.953Z" fill="#171725"/>
<path d="M206.129 107.746C207.874 97.2933 214.907 96.7149 223.66 99.355C220.517 106.825 214.115 108.49 206.129 107.746Z" fill="#F6C949"/>
<path d="M209.305 108.11C208.291 108.11 207.229 108.057 206.114 107.953L205.896 107.933L205.932 107.714C206.623 103.566 208.142 100.797 210.574 99.2482C213.518 97.3724 217.695 97.3435 223.722 99.1614L223.94 99.2275L223.851 99.4423C221.375 105.309 216.718 108.11 209.305 108.11ZM206.368 107.561C215.352 108.35 220.616 105.85 223.387 99.4878C217.602 97.7732 213.591 97.8062 210.788 99.5952C208.501 101.054 207.055 103.661 206.368 107.561Z" fill="#171725"/>
<path d="M206.28 107.887L205.985 107.606C210.291 102.859 216.063 100.091 223.641 99.1533L223.69 99.5623C216.209 100.492 210.513 103.215 206.28 107.887Z" fill="#171725"/>
<path d="M177.768 88.6753H181.214C181.04 104.032 192.12 122.752 206.969 139.216L205.923 140.824C176.795 141.129 161.821 107.821 177.768 88.6753Z" fill="#F6C949"/>
<path d="M205.536 141.035C191.859 141.035 179.866 133.358 174.178 120.927C169.028 109.676 170.345 97.2653 177.612 88.5436L177.672 88.4692H181.413L181.409 88.6799C181.251 102.632 190.38 120.53 207.112 139.081L207.221 139.2L206.025 141.035H205.92C205.791 141.035 205.662 141.035 205.536 141.035ZM177.862 88.8824C170.753 97.476 169.48 109.681 174.546 120.753C180.165 133.036 192.016 140.622 205.536 140.622C205.629 140.622 205.718 140.622 205.811 140.622L206.712 139.242C190.061 120.749 180.944 102.88 181.009 88.8865H177.862V88.8824Z" fill="#171725"/>
<path d="M205.819 141.006C196.282 135.52 188.361 127.765 183.509 119.163C178.076 109.528 176.485 98.9721 178.909 88.6309L179.3 88.7259C176.901 98.9638 178.476 109.417 183.857 118.956C188.672 127.492 196.541 135.197 206.017 140.647L205.819 141.006Z" fill="#171725"/>
<path d="M232.632 131.536H142.464V176.107H232.632V131.536Z" fill="#F6C949"/>
<path d="M232.835 176.314H142.263V131.33H232.835V176.314ZM142.667 175.901H232.431V131.743H142.667V175.901Z" fill="#171725"/>
<path d="M233.961 121.314H151.952V136.085H233.961V121.314Z" fill="#F6C949"/>
<path d="M234.164 136.287H151.751V121.104H234.164V136.287ZM152.155 135.874H233.76V121.517H152.155V135.874Z" fill="#171725"/>
<path d="M135.925 310.027L125.564 327.309H167.437L143.628 312.853L140.865 309.701L135.925 310.027Z" fill="#171725"/>
<path d="M108.247 290.84L88.4293 291.179L110.913 327.309L110.056 299.008L111.171 294.93L108.247 290.84Z" fill="#171725"/>
<path d="M159.595 312.51H126.278V157.982L154.865 149.893L159.595 312.51Z" fill="#2347CF"/>
<path d="M159.596 312.717H126.279C126.166 312.717 126.077 312.626 126.077 312.51V157.983C126.077 157.892 126.137 157.809 126.226 157.784L154.813 149.695C154.874 149.678 154.939 149.691 154.987 149.728C155.035 149.765 155.068 149.823 155.068 149.889L159.798 312.506C159.798 312.56 159.778 312.618 159.741 312.655C159.701 312.696 159.648 312.717 159.596 312.717ZM126.481 312.304H159.39L154.672 150.162L126.481 158.14V312.304Z" fill="#2347CF"/>
<path d="M154.865 149.892C163.247 182.466 177.15 230.598 175.211 239.609C172.614 249.838 141.446 282.42 120.566 306.953L95.6306 284.965C112.217 263.774 135.811 236.708 135.811 229.685C135.661 218.997 112.071 195.934 112.071 176.111C112.221 163.258 115.521 158.098 119.1 149.69L119.968 147.038L152.138 147.145L154.865 149.892Z" fill="#4D6FF0"/>
<path d="M120.563 307.16C120.515 307.16 120.47 307.143 120.43 307.11L95.4983 285.118C95.4175 285.044 95.4054 284.92 95.4741 284.833C99.36 279.867 103.698 274.496 107.891 269.302C121.516 252.429 135.61 234.986 135.61 229.681C135.549 225.248 131.36 218.596 126.509 210.899C119.646 200.004 111.87 187.655 111.87 176.107C111.995 165.155 114.463 159.635 117.315 153.239C117.832 152.078 118.37 150.876 118.911 149.604L119.771 146.968C119.8 146.885 119.876 146.827 119.961 146.827L152.131 146.935C152.184 146.935 152.236 146.955 152.273 146.992L154.999 149.748C155.023 149.773 155.044 149.806 155.052 149.843C156.752 156.449 158.647 163.576 160.654 171.125C168.297 199.86 176.957 232.424 175.398 239.655C173.471 247.232 155.811 267.183 138.732 286.477C132.588 293.418 126.234 300.595 120.708 307.089C120.676 307.135 120.62 307.16 120.563 307.16ZM95.9103 284.936L120.543 306.66C126.04 300.202 132.342 293.084 138.437 286.196C155.484 266.939 173.112 247.025 175.01 239.551C176.545 232.424 167.897 199.913 160.271 171.224C158.267 163.696 156.377 156.586 154.68 149.996L152.05 147.339L120.111 147.236L119.287 149.748C118.737 151.041 118.2 152.248 117.679 153.409C114.726 160.023 112.395 165.246 112.27 176.107C112.27 187.531 120.014 199.822 126.844 210.672C131.728 218.423 135.945 225.12 136.01 229.677C136.01 235.135 122.502 251.859 108.198 269.567C104.054 274.706 99.764 280.015 95.9103 284.936Z" fill="#4D6FF0"/>
<path d="M112.121 177.884V177.471C116.289 177.471 120.369 175.835 123.035 173.087C125.014 171.05 126.053 168.567 126.04 165.907L126.073 160.94H114.468V160.527H126.481L126.444 165.907C126.461 168.679 125.378 171.265 123.322 173.381C120.579 176.202 116.39 177.884 112.121 177.884Z" fill="#171725"/>
<path d="M115.611 162.163H114.803C114.69 162.163 114.601 162.072 114.601 161.957C114.601 161.841 114.69 161.75 114.803 161.75H115.611C115.724 161.75 115.813 161.841 115.813 161.957C115.813 162.072 115.724 162.163 115.611 162.163Z" fill="#171725"/>
<path d="M122.393 162.163H120.696C120.583 162.163 120.494 162.072 120.494 161.957C120.494 161.841 120.583 161.75 120.696 161.75H122.393C122.506 161.75 122.595 161.841 122.595 161.957C122.595 162.072 122.506 162.163 122.393 162.163ZM119.004 162.163H117.307C117.194 162.163 117.105 162.072 117.105 161.957C117.105 161.841 117.194 161.75 117.307 161.75H119.004C119.117 161.75 119.206 161.841 119.206 161.957C119.206 162.072 119.113 162.163 119.004 162.163Z" fill="#171725"/>
<path d="M124.885 162.993H124.881C124.768 162.989 124.683 162.894 124.683 162.783C124.687 162.58 124.691 162.374 124.691 162.167H124.085C123.972 162.167 123.883 162.076 123.883 161.96C123.883 161.845 123.972 161.754 124.085 161.754H124.893C125.006 161.754 125.095 161.845 125.095 161.96C125.095 162.241 125.091 162.518 125.087 162.795C125.083 162.902 124.994 162.993 124.885 162.993Z" fill="#171725"/>
<path d="M115.821 175.863C115.732 175.863 115.651 175.805 115.627 175.714C115.595 175.603 115.655 175.491 115.764 175.458C116.322 175.293 116.855 175.107 117.352 174.913C117.457 174.872 117.574 174.925 117.614 175.033C117.655 175.14 117.602 175.26 117.497 175.301C116.988 175.504 116.447 175.69 115.877 175.859C115.857 175.859 115.841 175.863 115.821 175.863ZM118.967 174.599C118.895 174.599 118.826 174.558 118.79 174.487C118.737 174.384 118.778 174.26 118.875 174.21C119.384 173.942 119.86 173.64 120.292 173.322C120.381 173.256 120.511 173.277 120.575 173.372C120.64 173.463 120.62 173.595 120.527 173.661C120.078 173.991 119.585 174.297 119.06 174.578C119.028 174.591 119 174.599 118.967 174.599ZM121.698 172.579C121.646 172.579 121.597 172.558 121.557 172.517C121.476 172.438 121.476 172.306 121.557 172.223C121.945 171.822 122.3 171.384 122.611 170.922C122.676 170.827 122.801 170.806 122.89 170.868C122.983 170.934 123.007 171.062 122.942 171.153C122.619 171.637 122.247 172.095 121.844 172.512C121.799 172.558 121.751 172.579 121.698 172.579ZM123.605 169.744C123.576 169.744 123.548 169.74 123.52 169.724C123.419 169.674 123.374 169.554 123.419 169.451C123.641 168.955 123.835 168.418 123.997 167.856C124.029 167.749 124.138 167.683 124.247 167.716C124.356 167.749 124.417 167.864 124.384 167.972C124.219 168.554 124.017 169.108 123.786 169.62C123.754 169.699 123.681 169.744 123.605 169.744ZM124.574 166.439C124.562 166.439 124.55 166.439 124.538 166.435C124.429 166.414 124.356 166.307 124.372 166.195C124.465 165.662 124.538 165.092 124.586 164.497C124.594 164.382 124.695 164.299 124.804 164.311C124.918 164.32 124.998 164.423 124.986 164.534C124.934 165.142 124.861 165.724 124.768 166.27C124.756 166.369 124.671 166.439 124.574 166.439Z" fill="#171725"/>
<path d="M113.373 176.458C113.276 176.458 113.195 176.388 113.175 176.289C113.155 176.177 113.227 176.07 113.336 176.045C113.603 175.992 113.866 175.938 114.124 175.88C114.233 175.855 114.342 175.925 114.367 176.037C114.391 176.149 114.322 176.26 114.213 176.285C113.954 176.343 113.688 176.401 113.417 176.454C113.401 176.458 113.389 176.458 113.373 176.458Z" fill="#171725"/>
<path d="M138.626 74.8804L144.799 77.194L142.65 80.6604L137.701 78.1443L138.626 74.8804Z" fill="white"/>
<path d="M142.651 80.8673C142.622 80.8673 142.59 80.8591 142.562 80.8467L137.613 78.3264C137.525 78.281 137.484 78.1818 137.508 78.0827L138.433 74.8229C138.45 74.7692 138.486 74.7237 138.534 74.6948C138.583 74.67 138.643 74.6659 138.696 74.6866L144.868 77.0002C144.925 77.0209 144.969 77.0705 144.989 77.1283C145.01 77.1861 145.002 77.2522 144.969 77.306L142.82 80.7723C142.784 80.8343 142.715 80.8673 142.651 80.8673ZM137.941 78.0372L142.574 80.3963L144.493 77.306L138.761 75.1576L137.941 78.0372Z" fill="#171725"/>
<path d="M150.338 47.716L153.19 68.6091L149.453 68.9107V71.5921C139.419 73.4719 133.542 70.5179 130.997 65.6757C124.784 47.8688 135.747 44.6338 150.338 47.716Z" fill="#171725"/>
<path d="M140.581 80.2142L130.345 77.1734L131.662 65.5308H140.868L140.581 80.2142Z" fill="#EC5E48"/>
<path d="M140.78 80.4872L130.128 77.3225L131.486 65.3286H141.079L140.78 80.4872ZM130.569 77.0209L140.389 79.9377L140.663 65.7376H131.841L130.569 77.0209Z" fill="#EC5E48"/>
<path d="M131.781 66.9233C133.105 70.0055 137.04 70.9103 140.712 71.1169C140.712 71.1169 141.814 68.0802 141.625 68.0182C141.439 67.9562 131.781 66.9233 131.781 66.9233Z" fill="#171725"/>
<path d="M138.255 68.6085C131.582 68.6085 126.173 63.0764 126.173 56.2511V47.9839L150.337 47.7153V56.2511C150.337 63.0764 144.928 68.6085 138.255 68.6085Z" fill="#EC5E48"/>
<path d="M138.256 68.8156C131.482 68.8156 125.972 63.1802 125.972 56.2516V47.782L150.54 47.5093V56.2516C150.54 63.1802 145.03 68.8156 138.256 68.8156ZM126.376 48.191V56.2516C126.376 62.9529 131.704 68.4024 138.256 68.4024C144.808 68.4024 150.136 62.9529 150.136 56.2516V47.9266L126.376 48.191Z" fill="#EC5E48"/>
<path d="M138.489 36.4077H136.643C129.053 36.4077 122.897 42.7042 122.897 50.4673L119.577 70.4061L127.421 71.596L127.542 61.0399L128.144 72.0009H130.835L129.219 56.0284C128.698 52.2604 140.19 51.7894 141.854 47.9925L143.429 49.232C144.75 49.8063 148.204 49.8807 150.551 49.2279V48.5255C150.539 41.8283 145.033 36.4077 138.489 36.4077Z" fill="#171725"/>
<path d="M126.033 61.646C128.227 60.9813 129.363 58.2203 128.57 55.479C127.776 52.7377 125.354 51.0543 123.159 51.7189C120.964 52.3836 119.829 55.1446 120.622 57.8859C121.416 60.6272 123.838 62.3106 126.033 61.646Z" fill="#EC5E48"/>
<path d="M125.051 61.9987C124.247 61.9987 123.439 61.7342 122.692 61.2137C121.629 60.4783 120.83 59.3173 120.43 57.9456C119.606 55.099 120.805 52.2193 123.104 51.5211C125.402 50.8229 127.943 52.5746 128.767 55.4213C129.163 56.7929 129.11 58.2142 128.61 59.4206C128.105 60.6435 127.212 61.5029 126.089 61.8417C125.754 61.945 125.402 61.9987 125.051 61.9987ZM124.142 51.7814C123.835 51.7814 123.524 51.8268 123.221 51.9177C121.137 52.5498 120.058 55.2023 120.818 57.8299C121.189 59.1107 121.932 60.1932 122.918 60.8749C123.892 61.5483 124.978 61.7549 125.98 61.4492C126.982 61.1476 127.786 60.3667 128.242 59.2636C128.702 58.1439 128.755 56.8218 128.383 55.5411C127.733 53.2935 125.948 51.7814 124.142 51.7814Z" fill="#EC5E48"/>
<path d="M122.857 56.8879C122.845 56.8879 122.829 56.8879 122.817 56.8838C122.708 56.859 122.639 56.7515 122.664 56.64C122.987 55.0907 124.308 53.9586 125.063 53.6074C125.164 53.562 125.285 53.6074 125.33 53.7107C125.374 53.814 125.33 53.938 125.229 53.9834C124.542 54.3015 123.346 55.3262 123.055 56.7268C123.035 56.8218 122.95 56.8879 122.857 56.8879Z" fill="#171725"/>
<path d="M125.657 57.7967C125.6 57.7967 125.544 57.7719 125.503 57.7265L123.512 55.3757C123.439 55.2889 123.447 55.1608 123.532 55.0823C123.617 55.008 123.742 55.0162 123.819 55.103L125.81 57.4538C125.883 57.5406 125.875 57.6687 125.79 57.7472C125.754 57.7802 125.705 57.7967 125.657 57.7967Z" fill="#171725"/>
<path d="M128.141 71.9967L126.574 49.3311H128.141L130.831 71.9967H128.141Z" fill="#171725"/>
<path d="M138.797 56.7925C139.35 56.7925 139.799 55.666 139.799 54.2764C139.799 52.8868 139.35 51.7603 138.797 51.7603C138.244 51.7603 137.795 52.8868 137.795 54.2764C137.795 55.666 138.244 56.7925 138.797 56.7925Z" fill="#171725"/>
<path d="M146.973 55.797C147.43 55.797 147.801 54.8943 147.801 53.7808C147.801 52.6673 147.43 51.7646 146.973 51.7646C146.516 51.7646 146.145 52.6673 146.145 53.7808C146.145 54.8943 146.516 55.797 146.973 55.797Z" fill="#171725"/>
<path d="M119.019 149.892H154.861L156.368 107.399C156.767 92.0545 144.419 78.3337 132.365 75.9126C124.723 72.0579 111.914 88.9021 110.084 104.978C107.826 124.793 111.38 142.955 119.019 149.892Z" fill="white"/>
<path d="M155.06 150.099H118.947L118.891 150.045C111.224 143.088 107.609 124.967 109.891 104.95C110.541 99.2275 112.63 93.0591 115.764 87.5766C118.749 82.3626 122.425 78.2765 125.847 76.3718C128.29 75.0126 130.569 74.7812 132.435 75.7108C144.19 78.0864 156.987 91.6792 156.574 107.4L155.06 150.099ZM119.097 149.686H154.668L156.167 107.391C156.57 91.8651 143.927 78.4459 132.326 76.1157L132.277 76.0991C130.528 75.2191 128.371 75.4381 126.036 76.7395C118.034 81.1933 111.43 94.9513 110.287 105.003C108.025 124.839 111.567 142.774 119.097 149.686Z" fill="#171725"/>
<path d="M130.253 72.3477L126.338 76.3098L138.142 86.7791C138.162 86.7956 138.186 86.7874 138.198 86.7667L142.46 78.6028L130.253 72.3477Z" fill="white"/>
<path d="M138.167 86.9985C138.114 86.9985 138.062 86.9778 138.017 86.9448L126.21 76.4672C126.17 76.43 126.141 76.3763 126.141 76.3185C126.141 76.2606 126.162 76.2069 126.202 76.1656L130.116 72.2035C130.177 72.1415 130.27 72.125 130.351 72.1663L142.562 78.4256C142.61 78.4503 142.647 78.4958 142.663 78.5495C142.679 78.6032 142.675 78.6611 142.647 78.7106L138.385 86.8745C138.357 86.9283 138.284 86.9861 138.223 86.9985C138.203 86.9944 138.183 86.9985 138.167 86.9985ZM138.025 86.668C138.025 86.6721 138.021 86.6721 138.021 86.6762L138.025 86.668ZM126.638 76.3019L138.122 86.4862L142.19 78.6941L130.294 72.6001L126.638 76.3019Z" fill="#171725"/>
<path d="M186.085 150.727L198.046 159.932C200.146 161.46 201.657 161.117 203.584 161.981C204.889 162.493 207.7 167.769 210.827 170.546C210.653 171.529 210.156 172.202 208.532 171.793C206.714 171.236 204.473 169.62 202.497 166.955C202.223 166.629 201.584 166.873 201.867 167.554C203.148 170.508 204.662 175.008 204.105 176.189C202.78 177.66 201.633 178.792 199.783 178.755C198.325 179.813 196.648 180.3 194.62 179.854C193.312 180.436 192.213 180.899 190.751 179.854C187.976 177.296 186.901 171.95 187.236 166.36L178.491 158.952L186.085 150.727Z" fill="#EC5E48"/>
<path d="M192.493 180.685C191.92 180.685 191.31 180.508 190.635 180.024C188.022 177.615 186.68 172.554 187.028 166.456L178.194 158.978L186.062 150.451L198.165 159.767C199.409 160.672 200.423 160.899 201.497 161.135C202.18 161.288 202.891 161.445 203.658 161.788C204.329 162.048 205.29 163.378 206.514 165.06C207.77 166.795 209.338 168.952 210.953 170.385L211.038 170.464L211.018 170.579C210.905 171.216 210.679 171.625 210.307 171.873C209.879 172.154 209.281 172.195 208.473 171.992C206.409 171.356 204.171 169.567 202.325 167.08C202.261 167.002 202.143 167.002 202.075 167.047C201.97 167.113 201.958 167.274 202.042 167.473C203.101 169.91 204.931 174.893 204.276 176.277L204.244 176.326C202.903 177.818 201.727 178.962 199.861 178.962C199.853 178.962 199.845 178.962 199.837 178.962C198.229 180.111 196.529 180.47 194.634 180.07C193.931 180.388 193.24 180.685 192.493 180.685ZM178.787 158.941L187.448 166.274L187.44 166.378C187.08 172.397 188.369 177.38 190.885 179.702C192.259 180.681 193.265 180.235 194.541 179.665L194.602 179.64L194.666 179.652C196.488 180.053 198.128 179.706 199.667 178.586L199.72 178.545H199.788C201.533 178.582 202.608 177.541 203.933 176.07C204.365 175.037 203.137 170.989 201.679 167.634C201.481 167.154 201.647 166.832 201.865 166.692C202.115 166.535 202.45 166.584 202.644 166.812C204.446 169.241 206.611 170.98 208.586 171.588C209.269 171.761 209.766 171.74 210.093 171.521C210.343 171.356 210.505 171.067 210.602 170.617C208.986 169.154 207.439 167.022 206.191 165.304C205.056 163.742 204.074 162.391 203.509 162.168C202.765 161.837 202.079 161.684 201.412 161.536C200.346 161.3 199.239 161.052 197.926 160.094L186.107 150.996L178.787 158.941Z" fill="#EC5E48"/>
<path d="M194.622 180.062C194.549 180.062 194.481 180.02 194.444 179.95C193.568 178.252 192.622 175.881 192.606 174.327C192.606 174.211 192.695 174.12 192.804 174.116C192.913 174.112 193.006 174.207 193.01 174.319C193.026 175.802 193.988 178.174 194.804 179.752C194.856 179.851 194.82 179.979 194.719 180.033C194.687 180.053 194.654 180.062 194.622 180.062Z" fill="#171725"/>
<path d="M199.784 178.962C199.736 178.962 199.687 178.946 199.651 178.909C198.665 178.008 197.365 173.86 197.308 173.682C197.276 173.575 197.332 173.459 197.442 173.422C197.547 173.385 197.66 173.447 197.696 173.554C197.708 173.596 199.017 177.768 199.922 178.595C200.007 178.669 200.011 178.801 199.938 178.888C199.893 178.938 199.841 178.962 199.784 178.962Z" fill="#171725"/>
<path d="M192.399 144.951L176.189 165.464C150.345 147.389 127.138 128.929 124.125 107.024C122.452 90.3405 139.737 85.6388 144.799 94.9059C153.815 111.585 172.586 127.979 192.399 144.951Z" fill="white"/>
<path d="M176.23 165.741L176.077 165.634C151.392 148.368 127.03 129.624 123.924 107.053C123.5 102.835 124.267 99.0336 126.141 96.0424C127.777 93.4354 130.233 91.4977 133.057 90.5846C137.945 89.0064 142.731 90.7003 144.973 94.8029C154.284 112.027 174.602 129.433 192.525 144.79L192.679 144.923L176.23 165.741ZM136.652 90.4152C135.525 90.4152 134.358 90.597 133.178 90.9771C128.504 92.4851 123.378 97.5876 124.324 107.003C127.402 129.355 151.59 148.001 176.15 165.184L192.117 144.976C174.203 129.628 153.941 112.246 144.622 95.0054C143.014 92.0637 140.025 90.4152 136.652 90.4152Z" fill="#171725"/>
<path d="M177.769 88.6759L176.958 85.3583L180.969 84.6436L181.211 88.6759H177.769Z" fill="#171725"/>
<path d="M204.983 107.797L204.131 100.281H206.587L206.167 107.768L204.983 107.797Z" fill="#171725"/>
</g>
<path d="M3.34521 327.309H349" stroke="#171725"/>
<defs>
<clipPath id="clip0_595_3932">
<rect width="212.711" height="227.067" fill="white"/>
</clipPath>
<clipPath id="clip1_595_3932">
<rect width="148.897" height="290.901" fill="white" transform="translate(88.4293 36.4077)"/>
</clipPath>
</defs>
</svg>
